<svg width="1500" height="500" version="1.1" xmlns="http://www.w3.org/2000/svg" desc="Created with imagetracer.js version 1.2.6" ><path fill="rgb(254,254,254)" stroke="rgb(254,254,254)" stroke-width="1" opacity="1" d="M 1130.5 54 L 1172 95.5 L 1171.5 96 L 1130.5 55 L 1090 95.5 L 1090 283.5 L 1093 286.5 L 1092.5 287 L 1089 283.5 L 1089 95.5 L 1130.5 54 Z " /><path fill="rgb(254,254,254)" stroke="rgb(254,254,254)" stroke-width="1" opacity="1" d="M 1129.5 61 L 1148 78.5 L 1147.5 79 L 1130.5 62 L 1095 96.5 L 1129.5 132 L 1134.5 128 L 1135 128.5 L 1130.5 133 L 1094 97.5 L 1129.5 61 Z " /><path fill="rgb(254,254,254)" stroke="rgb(254,254,254)" stroke-width="1" opacity="1" d="M 1166.5 97 L 1167 97.5 L 1143.5 121 L 1143 120.5 L 1166.5 97 Z " /><path fill="rgb(254,254,254)" stroke="rgb(254,254,254)" stroke-width="1" opacity="1" d="M 1093.5 99 L 1127 132.5 L 1126.5 133 L 1094.5 101 L 1094 101.5 L 1094 281.5 L 1128.5 316 L 1129 135.5 L 1128.5 134 L 1130 135.5 L 1130 317.5 L 1129.5 318 L 1093 281.5 L 1093.5 99 Z " /><path fill="rgb(254,254,254)" stroke="rgb(254,254,254)" stroke-width="1" opacity="1" d="M 1167.5 99 L 1168 281.5 Q 1167 284 1166 282.5 L 1167 281.5 L 1167 101.5 L 1166.5 101 L 1134.5 133 L 1134 132.5 L 1167.5 99 Z " /><path fill="rgb(254,254,254)" stroke="rgb(254,254,254)" stroke-width="1" opacity="1" d="M 384.5 126 L 384.5 127 L 384.5 126 Z " /><path fill="rgb(254,254,254)" stroke="rgb(254,254,254)" stroke-width="1" opacity="1" d="M 1212.5 128 L 1254 168.5 L 1253.5 169 L 1213.5 129 L 1172.5 169 L 1172 168.5 L 1212.5 128 Z " /><path fill="rgb(254,254,254)" stroke="rgb(254,254,254)" stroke-width="1" opacity="1" d="M 1324.5 128 L 1367 169.5 L 1367 359.5 L 1327.5 399 L 1327 398.5 L 1366 359.5 L 1366 169.5 L 1325.5 129 L 1285 168.5 L 1284.5 242 L 1284 168.5 L 1324.5 128 Z " /><path fill="rgb(254,254,254)" stroke="rgb(254,254,254)" stroke-width="1" opacity="1" d="M 171.5 129 L 172 129.5 L 160.5 141 L 160 140.5 L 171.5 129 Z " /><path fill="rgb(254,254,254)" stroke="rgb(254,254,254)" stroke-width="1" opacity="1" d="M 620.5 129 L 661 170.5 L 620.5 211 L 620 210.5 L 660 169.5 L 620 129.5 L 620.5 129 Z " /><path fill="rgb(254,254,254)" stroke="rgb(254,254,254)" stroke-width="1" opacity="1" d="M 705.5 129 L 706 129.5 L 677.5 158 L 677 157.5 L 705.5 129 Z " /><path fill="rgb(254,254,254)" stroke="rgb(254,254,254)" stroke-width="1" opacity="1" d="M 820.5 129 L 824 132.5 L 823.5 133 L 820 129.5 L 820.5 129 Z " /><path fill="rgb(254,254,254)" stroke="rgb(254,254,254)" stroke-width="1" opacity="1" d="M 1032.5 129 L 1071 167.5 L 1071 282.5 L 1032.5 321 L 1032 320.5 L 1070 282.5 L 1070 167.5 L 1032 129.5 L 1032.5 129 Z " /><path fill="rgb(254,254,254)" stroke="rgb(254,254,254)" stroke-width="1" opacity="1" d="M 287.5 130 L 290 132.5 L 289.5 133 L 287 130.5 L 287.5 130 Z " /><path fill="rgb(254,254,254)" stroke="rgb(254,254,254)" stroke-width="1" opacity="1" d="M 915.5 130 L 916 130.5 L 879 167.5 L 879 356.5 L 918.5 396 L 925.5 389 L 926 389.5 L 918.5 397 L 878 356.5 L 878 167.5 L 915.5 130 Z " /><path fill="rgb(254,254,254)" stroke="rgb(254,254,254)" stroke-width="1" opacity="1" d="M 175.5 133 L 210.5 168 L 319 168.5 L 210.5 169 L 175 133.5 L 175.5 133 Z " /><path fill="rgb(254,254,254)" stroke="rgb(254,254,254)" stroke-width="1" opacity="1" d="M 284.5 133 L 290 138.5 L 289.5 139 L 284 133.5 L 284.5 133 Z " /><path fill="rgb(254,254,254)" stroke="rgb(254,254,254)" stroke-width="1" opacity="1" d="M 383.5 133 L 384 133.5 L 348.5 169 L 348 168.5 L 383.5 133 Z " /><path fill="rgb(254,254,254)" stroke="rgb(254,254,254)" stroke-width="1" opacity="1" d="M 385.5 133 L 421 169.5 L 400.5 190 L 400 189.5 L 420 168.5 L 385 133.5 L 385.5 133 Z " /><path fill="rgb(254,254,254)" stroke="rgb(254,254,254)" stroke-width="1" opacity="1" d="M 547.5 133 L 548 133.5 L 519.5 162 L 519 161.5 L 547.5 133 Z " /><path fill="rgb(254,254,254)" stroke="rgb(254,254,254)" stroke-width="1" opacity="1" d="M 816.5 133 L 817 133.5 L 781.5 169 L 781 168.5 L 816.5 133 Z " /><path fill="rgb(254,254,254)" stroke="rgb(254,254,254)" stroke-width="1" opacity="1" d="M 919.5 133 L 920 133.5 L 902.5 151 L 902 150.5 L 919.5 133 Z " /><path fill="rgb(254,254,254)" stroke="rgb(254,254,254)" stroke-width="1" opacity="1" d="M 1030.5 133 L 1042 144.5 L 1041.5 145 L 1030.5 134 L 1008.5 156 L 1008 155.5 L 1030.5 133 Z " /><path fill="rgb(254,254,254)" stroke="rgb(254,254,254)" stroke-width="1" opacity="1" d="M 172.5 134 L 207 167.5 L 206.5 168 L 173.5 135 L 138 169.5 L 165 196.5 L 164.5 197 L 137 169.5 L 172.5 134 Z " /><path fill="rgb(254,254,254)" stroke="rgb(254,254,254)" stroke-width="1" opacity="1" d="M 291.5 134 L 325 167.5 L 324.5 168 L 291 134.5 L 291.5 134 Z " /><path fill="rgb(254,254,254)" stroke="rgb(254,254,254)" stroke-width="1" opacity="1" d="M 614.5 134 L 615 134.5 L 580.5 169 L 512 168.5 L 580.5 168 L 614.5 134 Z " /><path fill="rgb(254,254,254)" stroke="rgb(254,254,254)" stroke-width="1" opacity="1" d="M 617.5 134 L 618 134.5 L 583 169.5 L 618.5 205 L 652.5 171 L 653 171.5 L 618.5 206 L 582 169.5 L 617.5 134 Z " /><path fill="rgb(254,254,254)" stroke="rgb(254,254,254)" stroke-width="1" opacity="1" d="M 619.5 134 L 655 169.5 L 654.5 170 L 619 134.5 L 619.5 134 Z " /><path fill="rgb(254,254,254)" stroke="rgb(254,254,254)" stroke-width="1" opacity="1" d="M 706.5 134 L 707 134.5 L 672.5 169 L 672 168.5 L 706.5 134 Z " /><path fill="rgb(254,254,254)" stroke="rgb(254,254,254)" stroke-width="1" opacity="1" d="M 708.5 134 L 712.5 138 L 713.5 137 L 745 168.5 L 744.5 169 L 715.5 140 L 714.5 141 L 708 134.5 L 708.5 134 Z M 714 138 L 714 139 L 714 138 Z M 715 139 L 715 140 L 715 139 Z " /><path fill="rgb(254,254,254)" stroke="rgb(254,254,254)" stroke-width="1" opacity="1" d="M 1026.5 134 L 1027 134.5 L 993.5 168 L 993 167.5 L 1026.5 134 Z " /><path fill="rgb(254,254,254)" stroke="rgb(254,254,254)" stroke-width="1" opacity="1" d="M 1132.5 134 L 1132 135.5 L 1132.5 316 L 1164.5 284 L 1165 284.5 L 1131.5 318 L 1131 317.5 L 1131 135.5 L 1132.5 134 Z " /><path fill="rgb(254,254,254)" stroke="rgb(254,254,254)" stroke-width="1" opacity="1" d="M 1212.5 134 L 1249 169.5 L 1215.5 204 L 1215 203.5 L 1248 170.5 L 1213.5 135 L 1178.5 169 L 1178 168.5 L 1212.5 134 Z " /><path fill="rgb(254,254,254)" stroke="rgb(254,254,254)" stroke-width="1" opacity="1" d="M 1324.5 134 L 1345 153.5 L 1344.5 154 L 1325.5 135 L 1295.5 164 L 1295 163.5 L 1324.5 134 Z " /><path fill="rgb(254,254,254)" stroke="rgb(254,254,254)" stroke-width="1" opacity="1" d="M 817.5 135 L 818 135.5 L 783 170.5 L 783.5 203 L 815.5 171 L 816 171.5 L 804 183.5 L 805 184.5 L 783.5 206 L 783.5 204 L 782 203.5 L 782 170.5 L 817.5 135 Z M 804 184 L 804 185 L 804 184 Z M 803 185 L 803 186 L 803 185 Z M 802 186 L 802 187 L 802 186 Z M 801 187 L 801 188 L 801 187 Z M 800 188 L 800 189 L 800 188 Z M 799 189 L 799 190 L 799 189 Z M 798 190 L 798 191 L 798 190 Z M 797 191 L 797 192 L 797 191 Z M 796 192 L 796 193 L 796 192 Z M 795 193 L 795 194 L 795 193 Z M 794 194 L 794 195 L 794 194 Z M 793 195 L 793 196 L 793 195 Z M 792 196 L 792 197 L 792 196 Z M 791 197 L 791 198 L 791 197 Z M 790 198 L 790 199 L 790 198 Z M 789 199 L 789 200 L 789 199 Z M 788 200 L 788 201 L 788 200 Z M 787 201 L 787 202 L 787 201 Z M 786 202 L 786 203 L 786 202 Z M 785 203 L 785 204 L 785 203 Z " /><path fill="rgb(254,254,254)" stroke="rgb(254,254,254)" stroke-width="1" opacity="1" d="M 820.5 135 L 855 169.5 L 854.5 170 L 820 135.5 L 820.5 135 Z " /><path fill="rgb(254,254,254)" stroke="rgb(254,254,254)" stroke-width="1" opacity="1" d="M 374.5 136 L 375 136.5 L 344 167.5 L 344 283.5 L 381 320.5 L 380.5 321 L 343 283.5 L 343 167.5 L 374.5 136 Z " /><path fill="rgb(254,254,254)" stroke="rgb(254,254,254)" stroke-width="1" opacity="1" d="M 396.5 137 L 426 166.5 L 425.5 167 L 396 137.5 L 396.5 137 Z " /><path fill="rgb(254,254,254)" stroke="rgb(254,254,254)" stroke-width="1" opacity="1" d="M 832.5 140 L 860 167.5 L 859.5 168 L 832 140.5 L 832.5 140 Z " /><path fill="rgb(254,254,254)" stroke="rgb(254,254,254)" stroke-width="1" opacity="1" d="M 148.5 151 L 149 151.5 L 131.5 169 L 131 168.5 L 148.5 151 Z " /><path fill="rgb(254,254,254)" stroke="rgb(254,254,254)" stroke-width="1" opacity="1" d="M 728.5 155 L 740 166.5 L 739.5 167 L 728 155.5 L 728.5 155 Z " /><path fill="rgb(254,254,254)" stroke="rgb(254,254,254)" stroke-width="1" opacity="1" d="M 893.5 158 L 894 158.5 L 884.5 168 L 884 167.5 L 893.5 158 Z " /><path fill="rgb(254,254,254)" stroke="rgb(254,254,254)" stroke-width="1" opacity="1" d="M 1056.5 160 L 1064 167.5 L 1063.5 168 L 1056 160.5 L 1056.5 160 Z " /><path fill="rgb(254,254,254)" stroke="rgb(254,254,254)" stroke-width="1" opacity="1" d="M 1356.5 164 L 1362 170.5 L 1325.5 207 L 1289 170.5 L 1289.5 170 L 1325.5 206 L 1361 170.5 L 1356 164.5 L 1356.5 164 Z " /><path fill="rgb(254,254,254)" stroke="rgb(254,254,254)" stroke-width="1" opacity="1" d="M 668.5 165 Q 670 166 667.5 167 Q 666 166 668.5 165 Z " /><path fill="rgb(254,254,254)" stroke="rgb(254,254,254)" stroke-width="1" opacity="1" d="M 506.5 168 L 506.5 169 L 506.5 168 Z " /><path fill="rgb(254,254,254)" stroke="rgb(254,254,254)" stroke-width="1" opacity="1" d="M 666.5 168 L 667 222.5 L 666 222.5 L 666.5 168 Z " /><path fill="rgb(254,254,254)" stroke="rgb(254,254,254)" stroke-width="1" opacity="1" d="M 741.5 168 L 741.5 169 L 741.5 168 Z " /><path fill="rgb(254,254,254)" stroke="rgb(254,254,254)" stroke-width="1" opacity="1" d="M 994.5 169 L 1030.5 204 L 1065.5 169 L 1066 169.5 L 1029.5 205 L 994 169.5 L 994.5 169 Z " /><path fill="rgb(254,254,254)" stroke="rgb(254,254,254)" stroke-width="1" opacity="1" d="M 131.5 170 L 168 207.5 L 163.5 212 L 163 211.5 L 167 206.5 L 131 170.5 L 131.5 170 Z " /><path fill="rgb(254,254,254)" stroke="rgb(254,254,254)" stroke-width="1" opacity="1" d="M 210.5 170 L 319 170.5 L 210.5 171 L 175.5 206 L 175 205.5 L 210.5 170 Z " /><path fill="rgb(254,254,254)" stroke="rgb(254,254,254)" stroke-width="1" opacity="1" d="M 512.5 170 L 580.5 170 L 616 205.5 L 615.5 206 L 580.5 171 L 512.5 171 L 512.5 170 Z " /><path fill="rgb(254,254,254)" stroke="rgb(254,254,254)" stroke-width="1" opacity="1" d="M 743.5 170 L 744 243 L 708 242.5 L 743 242 L 743.5 170 Z " /><path fill="rgb(254,254,254)" stroke="rgb(254,254,254)" stroke-width="1" opacity="1" d="M 745 170 L 781 170 L 781 204.5 L 780 204.5 L 780 171 L 746 171 L 745.5 205 L 745 170 Z " /><path fill="rgb(254,254,254)" stroke="rgb(254,254,254)" stroke-width="1" opacity="1" d="M 820.5 170 L 832 181.5 L 831 182.5 L 854 205.5 L 853.5 206 L 818.5 172 L 813.5 177 L 813 176.5 L 820.5 170 Z M 821 171 L 821 172 L 821 171 Z M 822 172 L 822 173 L 822 172 Z M 823 173 L 823 174 L 823 173 Z M 824 174 L 824 175 L 824 174 Z M 825 175 L 825 176 L 825 175 Z M 826 176 L 826 177 L 826 176 Z M 827 177 L 827 178 L 827 177 Z M 828 178 L 828 179 L 828 178 Z M 829 179 L 829 180 L 829 179 Z M 830 180 L 830 181 L 830 180 Z M 831 181 L 831 182 L 831 181 Z " /><path fill="rgb(254,254,254)" stroke="rgb(254,254,254)" stroke-width="1" opacity="1" d="M 884.5 170 L 919 204.5 L 918.5 205 L 884 170.5 L 884.5 170 Z " /><path fill="rgb(254,254,254)" stroke="rgb(254,254,254)" stroke-width="1" opacity="1" d="M 1176.5 170 L 1213 206.5 L 1211.5 208 L 1176 172.5 L 1177 171.5 L 1176.5 170 Z M 1178 172 L 1178 173 L 1178 172 Z M 1179 173 L 1179 174 L 1179 173 Z M 1180 174 L 1180 175 L 1180 174 Z M 1181 175 L 1181 176 L 1181 175 Z M 1182 176 L 1182 177 L 1182 176 Z M 1183 177 L 1183 178 L 1183 177 Z M 1184 178 L 1184 179 L 1184 178 Z M 1185 179 L 1185 180 L 1185 179 Z M 1186 180 L 1186 181 L 1186 180 Z M 1187 181 L 1187 182 L 1187 181 Z M 1188 182 L 1188 183 L 1188 182 Z M 1189 183 L 1189 184 L 1189 183 Z M 1190 184 L 1190 185 L 1190 184 Z M 1191 185 L 1191 186 L 1191 185 Z M 1192 186 L 1192 187 L 1192 186 Z M 1193 187 L 1193 188 L 1193 187 Z M 1194 188 L 1194 189 L 1194 188 Z M 1195 189 L 1195 190 L 1195 189 Z M 1196 190 L 1196 191 L 1196 190 Z M 1197 191 L 1197 192 L 1197 191 Z M 1198 192 L 1198 193 L 1198 192 Z M 1199 193 L 1199 194 L 1199 193 Z M 1200 194 L 1200 195 L 1200 194 Z M 1201 195 L 1201 196 L 1201 195 Z M 1202 196 L 1202 197 L 1202 196 Z M 1203 197 L 1203 198 L 1203 197 Z M 1204 198 L 1204 199 L 1204 198 Z M 1205 199 L 1205 200 L 1205 199 Z M 1206 200 L 1206 201 L 1206 200 Z M 1207 201 L 1207 202 L 1207 201 Z M 1208 202 L 1208 203 L 1208 202 Z M 1209 203 L 1209 204 L 1209 203 Z M 1210 204 L 1210 205 L 1210 204 Z M 1211 205 L 1211 206 L 1211 205 Z M 1212 206 L 1212 207 L 1212 206 Z " /><path fill="rgb(254,254,254)" stroke="rgb(254,254,254)" stroke-width="1" opacity="1" d="M 348.5 171 L 384 206.5 L 384 317.5 L 383.5 318 L 348 282.5 L 348.5 282 L 382.5 316 L 383 315.5 L 383 206.5 L 348 171.5 L 348.5 171 Z " /><path fill="rgb(254,254,254)" stroke="rgb(254,254,254)" stroke-width="1" opacity="1" d="M 421.5 171 L 422 204.5 L 421 204.5 L 420.5 173 L 389.5 204 L 389 203.5 L 421.5 171 Z " /><path fill="rgb(254,254,254)" stroke="rgb(254,254,254)" stroke-width="1" opacity="1" d="M 882.5 171 L 918 206.5 L 917.5 207 L 883.5 173 L 883 173.5 L 883.5 351 L 917.5 317 L 918 317.5 Q 916 318.5 918 319.5 L 912.5 325 L 911.5 324 L 883.5 352 L 882 351.5 L 882.5 171 Z M 917 319 L 917 320 L 917 319 Z M 916 320 L 916 321 L 916 320 Z M 915 321 L 915 322 L 915 321 Z M 914 322 L 914 323 L 914 322 Z M 913 323 L 913 324 L 913 323 Z " /><path fill="rgb(254,254,254)" stroke="rgb(254,254,254)" stroke-width="1" opacity="1" d="M 1066.5 171 L 1067 278 L 1064.5 277 L 1063.5 278 L 1030 244.5 L 1030.5 244 L 1057.5 271 L 1058.5 270 L 1065.5 277 L 1066 276.5 L 1065.5 173 L 1033.5 205 L 1033 204.5 L 1066.5 171 Z M 1059 271 L 1059 272 L 1059 271 Z M 1060 272 L 1060 273 L 1060 272 Z M 1061 273 L 1061 274 L 1061 273 Z M 1062 274 L 1062 275 L 1062 274 Z M 1063 275 L 1063 276 L 1063 275 Z M 1064 276 L 1064 277 L 1064 276 Z " /><path fill="rgb(254,254,254)" stroke="rgb(254,254,254)" stroke-width="1" opacity="1" d="M 320.5 172 L 321 279.5 L 320 279.5 L 319.5 174 L 311.5 182 L 311 181.5 L 320.5 172 Z " /><path fill="rgb(254,254,254)" stroke="rgb(254,254,254)" stroke-width="1" opacity="1" d="M 352.5 172 L 384.5 204 L 392.5 196 L 393 196.5 L 384.5 205 L 352 172.5 L 352.5 172 Z " /><path fill="rgb(254,254,254)" stroke="rgb(254,254,254)" stroke-width="1" opacity="1" d="M 510 172 L 511.5 172 L 539 199.5 L 538.5 200 L 511.5 173 L 511 173.5 L 510.5 282 L 510 172 Z " /><path fill="rgb(254,254,254)" stroke="rgb(254,254,254)" stroke-width="1" opacity="1" d="M 1288.5 172 L 1322 205.5 L 1321.5 206 L 1289.5 174 L 1289 174.5 L 1288.5 357 L 1288.5 172 Z " /><path fill="rgb(254,254,254)" stroke="rgb(254,254,254)" stroke-width="1" opacity="1" d="M 1248.5 173 L 1249 173.5 L 1214.5 208 L 1214 207.5 L 1248.5 173 Z " /><path fill="rgb(254,254,254)" stroke="rgb(254,254,254)" stroke-width="1" opacity="1" d="M 1361.5 173 L 1362 173.5 L 1334.5 201 L 1334 200.5 L 1361.5 173 Z " /><path fill="rgb(254,254,254)" stroke="rgb(254,254,254)" stroke-width="1" opacity="1" d="M 1000.5 178 L 1028 205.5 L 1027.5 206 L 1000 178.5 L 1000.5 178 Z " /><path fill="rgb(254,254,254)" stroke="rgb(254,254,254)" stroke-width="1" opacity="1" d="M 840.5 189 L 855 203.5 L 854.5 204 L 840 189.5 L 840.5 189 Z " /><path fill="rgb(254,254,254)" stroke="rgb(254,254,254)" stroke-width="1" opacity="1" d="M 301.5 190 L 302 190.5 L 285.5 207 L 284 205.5 L 288.5 201 L 289.5 202 L 301.5 190 Z M 289 202 L 289 203 L 289 202 Z M 288 203 L 288 204 L 288 203 Z M 287 204 L 287 205 L 287 204 Z M 286 205 L 286 206 L 286 205 Z " /><path fill="rgb(254,254,254)" stroke="rgb(254,254,254)" stroke-width="1" opacity="1" d="M 175.5 207 L 245.5 207 L 247 208.5 L 246.5 243 L 246 208 L 177 208.5 L 211 242.5 L 210.5 243 L 175 207.5 L 175.5 207 Z " /><path fill="rgb(254,254,254)" stroke="rgb(254,254,254)" stroke-width="1" opacity="1" d="M 248 207 L 284 207 L 284 315 L 282.5 315 L 261 293.5 L 261.5 293 L 282.5 314 L 283 313.5 L 283 208.5 L 282.5 208 L 249 208 L 248.5 242 L 248 207 Z " /><path fill="rgb(254,254,254)" stroke="rgb(254,254,254)" stroke-width="1" opacity="1" d="M 385.5 207 L 386.5 316 L 414.5 288 L 415 288.5 L 385.5 318 L 385 317.5 L 385.5 207 Z " /><path fill="rgb(254,254,254)" stroke="rgb(254,254,254)" stroke-width="1" opacity="1" d="M 421.5 207 L 422 281.5 L 421 281.5 L 421.5 207 Z " /><path fill="rgb(254,254,254)" stroke="rgb(254,254,254)" stroke-width="1" opacity="1" d="M 745.5 207 L 746 242 L 815 241.5 L 781 207.5 L 781.5 207 L 817 242.5 L 816.5 243 L 745 243 L 745.5 207 Z " /><path fill="rgb(254,254,254)" stroke="rgb(254,254,254)" stroke-width="1" opacity="1" d="M 853.5 207 L 854 207.5 L 819.5 242 L 819 241.5 L 853.5 207 Z " /><path fill="rgb(254,254,254)" stroke="rgb(254,254,254)" stroke-width="1" opacity="1" d="M 859.5 207 L 860 208.5 L 853.5 215 L 853 214.5 L 859.5 207 Z " /><path fill="rgb(254,254,254)" stroke="rgb(254,254,254)" stroke-width="1" opacity="1" d="M 920.5 207 L 955 207.5 L 920.5 208 L 920.5 207 Z " /><path fill="rgb(254,254,254)" stroke="rgb(254,254,254)" stroke-width="1" opacity="1" d="M 957.5 207 L 992 207.5 L 957.5 208 L 957.5 207 Z " /><path fill="rgb(254,254,254)" stroke="rgb(254,254,254)" stroke-width="1" opacity="1" d="M 994.5 207 L 1029 207.5 L 994.5 208 L 994.5 207 Z " /><path fill="rgb(254,254,254)" stroke="rgb(254,254,254)" stroke-width="1" opacity="1" d="M 1323.5 207 L 1325 208.5 L 1325 392.5 L 1324.5 393 L 1315 383.5 L 1315.5 383 L 1323.5 391 L 1324 390.5 L 1324 208.5 L 1323.5 207 Z " /><path fill="rgb(254,254,254)" stroke="rgb(254,254,254)" stroke-width="1" opacity="1" d="M 172.5 208 L 209 243.5 L 208 245.5 L 209 246.5 L 174.5 281 L 174 280.5 L 178 276.5 L 177 275.5 L 208 244.5 L 173.5 209 L 138 243.5 L 161 267.5 L 160 268.5 L 172 280.5 L 171.5 281 L 137 246.5 Q 139 245.5 137 244.5 L 172.5 208 Z M 139 246 L 139 247 L 139 246 Z M 208 246 L 208 247 L 208 246 Z M 140 247 L 140 248 L 140 247 Z M 207 247 L 207 248 L 207 247 Z M 141 248 L 141 249 L 141 248 Z M 206 248 L 206 249 L 206 248 Z M 142 249 L 142 250 L 142 249 Z M 205 249 L 205 250 L 205 249 Z M 143 250 L 143 251 L 143 250 Z M 204 250 L 204 251 L 204 250 Z M 144 251 L 144 252 L 144 251 Z M 203 251 L 203 252 L 203 251 Z M 145 252 L 145 253 L 145 252 Z M 202 252 L 202 253 L 202 252 Z M 146 253 L 146 254 L 146 253 Z M 201 253 L 201 254 L 201 253 Z M 147 254 L 147 255 L 147 254 Z M 200 254 L 200 255 L 200 254 Z M 148 255 L 148 256 L 148 255 Z M 199 255 L 199 256 L 199 255 Z M 149 256 L 149 257 L 149 256 Z M 198 256 L 198 257 L 198 256 Z M 150 257 L 150 258 L 150 257 Z M 197 257 L 197 258 L 197 257 Z M 151 258 L 151 259 L 151 258 Z M 196 258 L 196 259 L 196 258 Z M 152 259 L 152 260 L 152 259 Z M 195 259 L 195 260 L 195 259 Z M 153 260 L 153 261 L 153 260 Z M 194 260 L 194 261 L 194 260 Z M 154 261 L 154 262 L 154 261 Z M 193 261 L 193 262 L 193 261 Z M 155 262 L 155 263 L 155 262 Z M 192 262 L 192 263 L 192 262 Z M 156 263 L 156 264 L 156 263 Z M 191 263 L 191 264 L 191 263 Z M 157 264 L 157 265 L 157 264 Z M 190 264 L 190 265 L 190 264 Z M 158 265 L 158 266 L 158 265 Z M 189 265 L 189 266 L 189 265 Z M 159 266 L 159 267 L 159 266 Z M 188 266 L 188 267 L 188 266 Z M 160 267 L 160 268 L 160 267 Z M 187 267 L 187 268 L 187 267 Z M 186 268 L 186 269 L 186 268 Z M 185 269 L 185 270 L 185 269 Z M 184 270 L 184 271 L 184 270 Z M 183 271 L 183 272 L 183 271 Z M 182 272 L 182 273 L 182 272 Z M 181 273 L 181 274 L 181 273 Z M 180 274 L 180 275 L 180 274 Z M 179 275 L 179 276 L 179 275 Z " /><path fill="rgb(254,254,254)" stroke="rgb(254,254,254)" stroke-width="1" opacity="1" d="M 588.5 211 L 589 284.5 L 588 284.5 L 588.5 211 Z " /><path fill="rgb(254,254,254)" stroke="rgb(254,254,254)" stroke-width="1" opacity="1" d="M 154.5 219 L 155 219.5 L 132.5 242 L 132 241.5 L 154.5 219 Z " /><path fill="rgb(254,254,254)" stroke="rgb(254,254,254)" stroke-width="1" opacity="1" d="M 843.5 223 L 844 223.5 L 824.5 243 L 824 242.5 L 843.5 223 Z " /><path fill="rgb(254,254,254)" stroke="rgb(254,254,254)" stroke-width="1" opacity="1" d="M 248.5 243 L 248.5 244 L 248.5 243 Z " /><path fill="rgb(254,254,254)" stroke="rgb(254,254,254)" stroke-width="1" opacity="1" d="M 706.5 243 L 707.5 244 L 816.5 244 L 818 245.5 L 783.5 280 L 783 279.5 L 786 276.5 L 785 275.5 L 815 245.5 L 814.5 245 L 707.5 245 L 674 278.5 L 781 279.5 L 673 280 L 673 278.5 L 707 244.5 L 706.5 243 Z M 817 245 L 817 246 L 817 245 Z M 816 246 L 816 247 L 816 246 Z M 815 247 L 815 248 L 815 247 Z M 814 248 L 814 249 L 814 248 Z M 813 249 L 813 250 L 813 249 Z M 812 250 L 812 251 L 812 250 Z M 811 251 L 811 252 L 811 251 Z M 810 252 L 810 253 L 810 252 Z M 809 253 L 809 254 L 809 253 Z M 808 254 L 808 255 L 808 254 Z M 807 255 L 807 256 L 807 255 Z M 806 256 L 806 257 L 806 256 Z M 805 257 L 805 258 L 805 257 Z M 804 258 L 804 259 L 804 258 Z M 803 259 L 803 260 L 803 259 Z M 802 260 L 802 261 L 802 260 Z M 801 261 L 801 262 L 801 261 Z M 800 262 L 800 263 L 800 262 Z M 799 263 L 799 264 L 799 263 Z M 798 264 L 798 265 L 798 264 Z M 797 265 L 797 266 L 797 265 Z M 796 266 L 796 267 L 796 266 Z M 795 267 L 795 268 L 795 267 Z M 794 268 L 794 269 L 794 268 Z M 793 269 L 793 270 L 793 269 Z M 792 270 L 792 271 L 792 270 Z M 791 271 L 791 272 L 791 271 Z M 790 272 L 790 273 L 790 272 Z M 789 273 L 789 274 L 789 273 Z M 788 274 L 788 275 L 788 274 Z M 787 275 L 787 276 L 787 275 Z " /><path fill="rgb(254,254,254)" stroke="rgb(254,254,254)" stroke-width="1" opacity="1" d="M 1033.5 244 L 1045 255.5 L 1044.5 256 L 1033 244.5 L 1033.5 244 Z " /><path fill="rgb(254,254,254)" stroke="rgb(254,254,254)" stroke-width="1" opacity="1" d="M 1214.5 244 L 1249 244.5 L 1214.5 245 L 1214.5 244 Z " /><path fill="rgb(254,254,254)" stroke="rgb(254,254,254)" stroke-width="1" opacity="1" d="M 246.5 245 L 247 278.5 L 245.5 280 L 211.5 280 L 211.5 279 L 246 279 L 246.5 245 Z " /><path fill="rgb(254,254,254)" stroke="rgb(254,254,254)" stroke-width="1" opacity="1" d="M 819.5 245 L 855 280.5 L 819.5 316 L 819 315.5 L 854 280.5 L 819 245.5 L 819.5 245 Z " /><path fill="rgb(254,254,254)" stroke="rgb(254,254,254)" stroke-width="1" opacity="1" d="M 826.5 245 L 851 269.5 L 850.5 270 L 826 245.5 L 826.5 245 Z " /><path fill="rgb(254,254,254)" stroke="rgb(254,254,254)" stroke-width="1" opacity="1" d="M 1211.5 245 L 1213 246.5 L 1199.5 260 L 1198.5 259 L 1187.5 270 L 1187 269.5 L 1211.5 245 Z M 1212 246 L 1212 247 L 1212 246 Z M 1211 247 L 1211 248 L 1211 247 Z M 1210 248 L 1210 249 L 1210 248 Z M 1209 249 L 1209 250 L 1209 249 Z M 1208 250 L 1208 251 L 1208 250 Z M 1207 251 L 1207 252 L 1207 251 Z M 1206 252 L 1206 253 L 1206 252 Z M 1205 253 L 1205 254 L 1205 253 Z M 1204 254 L 1204 255 L 1204 254 Z M 1203 255 L 1203 256 L 1203 255 Z M 1202 256 L 1202 257 L 1202 256 Z M 1201 257 L 1201 258 L 1201 257 Z M 1200 258 L 1200 259 L 1200 258 Z " /><path fill="rgb(254,254,254)" stroke="rgb(254,254,254)" stroke-width="1" opacity="1" d="M 248.5 246 L 249 278.5 L 248 278.5 L 248.5 246 Z " /><path fill="rgb(254,254,254)" stroke="rgb(254,254,254)" stroke-width="1" opacity="1" d="M 696.5 252 L 697 252.5 L 671.5 278 L 671 277.5 L 696.5 252 Z " /><path fill="rgb(254,254,254)" stroke="rgb(254,254,254)" stroke-width="1" opacity="1" d="M 1190.5 269 L 1191 269.5 L 1178.5 282 L 1178 281.5 L 1190.5 269 Z " /><path fill="rgb(254,254,254)" stroke="rgb(254,254,254)" stroke-width="1" opacity="1" d="M 957.5 279 L 1065 279.5 L 957.5 280 L 957.5 279 Z " /><path fill="rgb(254,254,254)" stroke="rgb(254,254,254)" stroke-width="1" opacity="1" d="M 137.5 280 L 172 314.5 L 171.5 315 L 137 280.5 L 137.5 280 Z " /><path fill="rgb(254,254,254)" stroke="rgb(254,254,254)" stroke-width="1" opacity="1" d="M 208.5 280 L 209 280.5 L 174.5 315 L 174 314.5 L 208.5 280 Z " /><path fill="rgb(254,254,254)" stroke="rgb(254,254,254)" stroke-width="1" opacity="1" d="M 860.5 280 L 860.5 281 L 860.5 280 Z " /><path fill="rgb(254,254,254)" stroke="rgb(254,254,254)" stroke-width="1" opacity="1" d="M 210.5 281 L 211 281.5 L 175.5 317 L 175 316.5 L 210.5 281 Z " /><path fill="rgb(254,254,254)" stroke="rgb(254,254,254)" stroke-width="1" opacity="1" d="M 247.5 281 L 254 287.5 L 253.5 288 L 247 281.5 L 247.5 281 Z " /><path fill="rgb(254,254,254)" stroke="rgb(254,254,254)" stroke-width="1" opacity="1" d="M 318.5 281 L 318.5 282 L 318.5 281 Z " /><path fill="rgb(254,254,254)" stroke="rgb(254,254,254)" stroke-width="1" opacity="1" d="M 673 281 L 781 281.5 L 674 282.5 L 708 316.5 L 707.5 317 L 673 282.5 L 673 281 Z " /><path fill="rgb(254,254,254)" stroke="rgb(254,254,254)" stroke-width="1" opacity="1" d="M 783.5 281 L 818 315.5 L 816.5 317 L 787 287.5 L 788 286.5 L 783 281.5 L 783.5 281 Z M 789 287 L 789 288 L 789 287 Z M 790 288 L 790 289 L 790 288 Z M 791 289 L 791 290 L 791 289 Z M 792 290 L 792 291 L 792 290 Z M 793 291 L 793 292 L 793 291 Z M 794 292 L 794 293 L 794 292 Z M 795 293 L 795 294 L 795 293 Z M 796 294 L 796 295 L 796 294 Z M 797 295 L 797 296 L 797 295 Z M 798 296 L 798 297 L 798 296 Z M 799 297 L 799 298 L 799 297 Z M 800 298 L 800 299 L 800 298 Z M 801 299 L 801 300 L 801 299 Z M 802 300 L 802 301 L 802 300 Z M 803 301 L 803 302 L 803 301 Z M 804 302 L 804 303 L 804 302 Z M 805 303 L 805 304 L 805 303 Z M 806 304 L 806 305 L 806 304 Z M 807 305 L 807 306 L 807 305 Z M 808 306 L 808 307 L 808 306 Z M 809 307 L 809 308 L 809 307 Z M 810 308 L 810 309 L 810 308 Z M 811 309 L 811 310 L 811 309 Z M 812 310 L 812 311 L 812 310 Z M 813 311 L 813 312 L 813 311 Z M 814 312 L 814 313 L 814 312 Z M 815 313 L 815 314 L 815 313 Z M 816 314 L 816 315 L 816 314 Z M 817 315 L 817 316 L 817 315 Z " /><path fill="rgb(254,254,254)" stroke="rgb(254,254,254)" stroke-width="1" opacity="1" d="M 1064.5 281 L 1065 281.5 L 1030.5 316 L 1030 315.5 L 1064.5 281 Z " /><path fill="rgb(254,254,254)" stroke="rgb(254,254,254)" stroke-width="1" opacity="1" d="M 324.5 282 L 325 282.5 L 287.5 320 L 287 319.5 L 324.5 282 Z " /><path fill="rgb(254,254,254)" stroke="rgb(254,254,254)" stroke-width="1" opacity="1" d="M 583.5 282 L 584 282.5 L 548.5 318 L 548 317.5 L 583.5 282 Z " /><path fill="rgb(254,254,254)" stroke="rgb(254,254,254)" stroke-width="1" opacity="1" d="M 667.5 282 L 706 320.5 L 705.5 321 L 667 282.5 L 667.5 282 Z " /><path fill="rgb(254,254,254)" stroke="rgb(254,254,254)" stroke-width="1" opacity="1" d="M 316.5 283 L 317 283.5 L 285.5 315 L 285 314.5 L 316.5 283 Z " /><path fill="rgb(254,254,254)" stroke="rgb(254,254,254)" stroke-width="1" opacity="1" d="M 512.5 283 L 546 316.5 L 545.5 317 L 512 283.5 L 512.5 283 Z " /><path fill="rgb(254,254,254)" stroke="rgb(254,254,254)" stroke-width="1" opacity="1" d="M 134.5 284 L 164 313.5 L 163.5 314 L 134 284.5 L 134.5 284 Z " /><path fill="rgb(254,254,254)" stroke="rgb(254,254,254)" stroke-width="1" opacity="1" d="M 425.5 284 L 426 284.5 L 389.5 321 L 389 320.5 L 425.5 284 Z " /><path fill="rgb(254,254,254)" stroke="rgb(254,254,254)" stroke-width="1" opacity="1" d="M 506.5 284 L 543 320.5 L 542.5 321 L 506 284.5 L 506.5 284 Z " /><path fill="rgb(254,254,254)" stroke="rgb(254,254,254)" stroke-width="1" opacity="1" d="M 1171.5 284 L 1172 284.5 L 1139.5 317 L 1139 316.5 L 1171.5 284 Z " /><path fill="rgb(254,254,254)" stroke="rgb(254,254,254)" stroke-width="1" opacity="1" d="M 1178.5 284 L 1213.5 319 L 1287 319.5 L 1213.5 320 L 1178 284.5 L 1178.5 284 Z " /><path fill="rgb(254,254,254)" stroke="rgb(254,254,254)" stroke-width="1" opacity="1" d="M 1173.5 286 L 1208 320.5 L 1171.5 357 L 1171 356.5 L 1207 320.5 L 1173 286.5 L 1173.5 286 Z " /><path fill="rgb(254,254,254)" stroke="rgb(254,254,254)" stroke-width="1" opacity="1" d="M 849.5 291 L 850 291.5 L 820.5 321 L 820 320.5 L 849.5 291 Z " /><path fill="rgb(254,254,254)" stroke="rgb(254,254,254)" stroke-width="1" opacity="1" d="M 577.5 294 L 578 294.5 L 551.5 321 L 551 320.5 L 577.5 294 Z " /><path fill="rgb(254,254,254)" stroke="rgb(254,254,254)" stroke-width="1" opacity="1" d="M 268.5 303 L 280 314.5 L 279.5 315 L 268 303.5 L 268.5 303 Z " /><path fill="rgb(254,254,254)" stroke="rgb(254,254,254)" stroke-width="1" opacity="1" d="M 166.5 316 L 166.5 317 L 166.5 316 Z " /><path fill="rgb(254,254,254)" stroke="rgb(254,254,254)" stroke-width="1" opacity="1" d="M 281.5 316 L 281.5 317 L 281.5 316 Z " /><path fill="rgb(254,254,254)" stroke="rgb(254,254,254)" stroke-width="1" opacity="1" d="M 920.5 317 L 955 351.5 L 954.5 352 L 920 317.5 L 920.5 317 Z " /><path fill="rgb(254,254,254)" stroke="rgb(254,254,254)" stroke-width="1" opacity="1" d="M 168.5 318 Q 171 319 169.5 320 Q 167 319 168.5 318 Z " /><path fill="rgb(254,254,254)" stroke="rgb(254,254,254)" stroke-width="1" opacity="1" d="M 919.5 319 L 950 349.5 L 949.5 350 L 919 319.5 L 919.5 319 Z " /><path fill="rgb(254,254,254)" stroke="rgb(254,254,254)" stroke-width="1" opacity="1" d="M 1136.5 319 L 1136.5 320 L 1136.5 319 Z " /><path fill="rgb(254,254,254)" stroke="rgb(254,254,254)" stroke-width="1" opacity="1" d="M 959.5 321 L 960 356.5 L 934.5 382 L 934 381.5 L 959 356.5 L 959.5 321 Z " /><path fill="rgb(254,254,254)" stroke="rgb(254,254,254)" stroke-width="1" opacity="1" d="M 1215.5 321 L 1251 356.5 L 1250.5 357 L 1215 321.5 L 1215.5 321 Z " /><path fill="rgb(254,254,254)" stroke="rgb(254,254,254)" stroke-width="1" opacity="1" d="M 1212.5 322 L 1249 357.5 L 1250 359.5 L 1244.5 365 L 1243.5 364 L 1236.5 371 L 1236 370.5 L 1248 357.5 L 1212.5 323 L 1206.5 329 L 1206 328.5 L 1212.5 322 Z M 1249 359 L 1249 360 L 1249 359 Z M 1248 360 L 1248 361 L 1248 360 Z M 1247 361 L 1247 362 L 1247 361 Z M 1246 362 L 1246 363 L 1246 362 Z M 1245 363 L 1245 364 L 1245 363 Z " /><path fill="rgb(254,254,254)" stroke="rgb(254,254,254)" stroke-width="1" opacity="1" d="M 904.5 333 L 905 333.5 L 884 354.5 L 918.5 389 L 920.5 387 L 921 387.5 L 918.5 390 L 883 354.5 L 904.5 333 Z " /><path fill="rgb(254,254,254)" stroke="rgb(254,254,254)" stroke-width="1" opacity="1" d="M 1194.5 339 L 1195 339.5 L 1176.5 358 L 1176 357.5 L 1194.5 339 Z " /><path fill="rgb(254,254,254)" stroke="rgb(254,254,254)" stroke-width="1" opacity="1" d="M 951.5 357 L 952 357.5 L 926.5 383 L 926 382.5 L 951.5 357 Z " /><path fill="rgb(254,254,254)" stroke="rgb(254,254,254)" stroke-width="1" opacity="1" d="M 1361.5 357 L 1362 357.5 L 1326.5 393 L 1326 392.5 L 1361.5 357 Z " /><path fill="rgb(254,254,254)" stroke="rgb(254,254,254)" stroke-width="1" opacity="1" d="M 1171.5 358 L 1174 360.5 L 1173.5 361 L 1171 358.5 L 1171.5 358 Z " /><path fill="rgb(254,254,254)" stroke="rgb(254,254,254)" stroke-width="1" opacity="1" d="M 1178.5 359 L 1213 393.5 L 1212.5 394 L 1178 359.5 L 1178.5 359 Z " /><path fill="rgb(254,254,254)" stroke="rgb(254,254,254)" stroke-width="1" opacity="1" d="M 1288.5 359 L 1298 368.5 L 1297.5 369 L 1288 359.5 L 1288.5 359 Z " /><path fill="rgb(254,254,254)" stroke="rgb(254,254,254)" stroke-width="1" opacity="1" d="M 1185.5 373 L 1211 398.5 L 1210.5 399 L 1185 373.5 L 1185.5 373 Z " /><path fill="rgb(254,254,254)" stroke="rgb(254,254,254)" stroke-width="1" opacity="1" d="M 1309.5 381 L 1320 391.5 L 1319.5 392 L 1309 381.5 L 1309.5 381 Z " /><path fill="rgb(254,254,254)" stroke="rgb(254,254,254)" stroke-width="1" opacity="1" d="M 1215.5 394 L 1323 394.5 L 1215.5 395 L 1215.5 394 Z " /><path fill="rgb(255,255,255)" stroke="rgb(255,255,255)" stroke-width="1" opacity="1" d="M 0 0 L 1500 0 L 1500 500 L 0 500 L 0 0 Z M 1131 54 L 1089 96 L 1089 284 L 1127 321 L 1135 321 L 1136 320 Q 1138 321 1137 319 L 1172 285 Q 1174 284 1173 287 L 1207 321 L 1171 357 L 1171 359 L 1211 399 L 1328 399 L 1367 360 L 1367 170 L 1326 128 L 1284 169 L 1284 242 L 1254 242 L 1254 169 L 1214 128 L 1173 168 L 1172 96 L 1131 54 Z M 385 126 L 343 168 L 343 284 L 381 321 L 390 321 L 426 285 L 426 167 L 385 126 Z M 172 129 L 131 169 L 131 171 L 167 208 L 155 219 L 132 242 L 132 283 L 166 316 Q 165 318 168 317 L 168 319 L 172 321 L 286 321 L 325 283 L 325 168 L 292 134 Q 289 135 290 133 L 286 129 L 172 129 Z M 546 129 L 506 169 L 506 285 L 543 321 L 552 321 L 588 285 L 589 285 L 589 211 L 621 211 L 661 170 L 621 129 L 546 129 Z M 706 129 L 669 165 L 666 169 L 666 223 L 667 224 L 667 283 L 706 321 L 821 321 L 861 281 L 851 270 L 824 244 L 854 215 L 860 209 L 860 168 L 821 129 L 706 129 Z M 918 129 L 878 168 L 878 357 L 919 397 L 960 357 L 960 321 L 1033 321 L 1071 283 L 1071 168 L 1033 129 L 918 129 Z " /><path fill="rgb(255,255,255)" stroke="rgb(255,255,255)" stroke-width="1" opacity="1" d="M 1129.5 62 L 1166 96.5 L 1135.5 128 L 1129.5 132 L 1095 96.5 L 1129.5 62 Z " /><path fill="rgb(255,255,255)" stroke="rgb(255,255,255)" stroke-width="1" opacity="1" d="M 1094.5 101 L 1126.5 133 L 1128 133 L 1129 135.5 L 1129 315.5 L 1128.5 316 L 1094 281.5 L 1094.5 101 Z " /><path fill="rgb(255,255,255)" stroke="rgb(255,255,255)" stroke-width="1" opacity="1" d="M 1166.5 101 L 1167 281.5 L 1166 284 L 1164.5 284 L 1132.5 316 L 1132 135.5 L 1133 133 L 1134.5 133 L 1166.5 101 Z " /><path fill="rgb(255,255,255)" stroke="rgb(255,255,255)" stroke-width="1" opacity="1" d="M 176.5 133 L 283.5 133 L 318 167.5 L 210.5 168 L 176 133.5 L 176.5 133 Z " /><path fill="rgb(255,255,255)" stroke="rgb(255,255,255)" stroke-width="1" opacity="1" d="M 384.5 133 L 420 169.5 L 384.5 204 L 349 169.5 L 384.5 133 Z " /><path fill="rgb(255,255,255)" stroke="rgb(255,255,255)" stroke-width="1" opacity="1" d="M 548.5 133 L 616 133.5 L 580.5 168 L 513.5 168 L 513 167.5 L 518.5 162 L 548.5 133 Z " /><path fill="rgb(255,255,255)" stroke="rgb(255,255,255)" stroke-width="1" opacity="1" d="M 710.5 133 L 816 133.5 L 780.5 169 L 745.5 169 L 710 133.5 L 710.5 133 Z " /><path fill="rgb(255,255,255)" stroke="rgb(255,255,255)" stroke-width="1" opacity="1" d="M 920.5 133 L 1028 133.5 L 992.5 168 L 885.5 168 L 885 167.5 L 901.5 151 L 920.5 133 Z " /><path fill="rgb(255,255,255)" stroke="rgb(255,255,255)" stroke-width="1" opacity="1" d="M 618.5 134 L 654 169.5 L 654 171 L 652.5 171 L 618.5 205 L 583 169.5 L 618.5 134 Z " /><path fill="rgb(255,255,255)" stroke="rgb(255,255,255)" stroke-width="1" opacity="1" d="M 1030.5 134 L 1063.5 168 Q 1065.75 167.25 1065 169.5 L 1029.5 204 L 995 168.5 L 1030.5 134 Z " /><path fill="rgb(255,255,255)" stroke="rgb(255,255,255)" stroke-width="1" opacity="1" d="M 172.5 135 L 209 169.5 L 172.5 205 L 138 169.5 L 172.5 135 Z " /><path fill="rgb(255,255,255)" stroke="rgb(255,255,255)" stroke-width="1" opacity="1" d="M 706.5 135 L 707 242.5 L 671.5 277 L 671 170.5 L 706.5 135 Z " /><path fill="rgb(255,255,255)" stroke="rgb(255,255,255)" stroke-width="1" opacity="1" d="M 708.5 135 L 739.5 167 L 741 167 L 741 169 L 743 169.5 L 743 242 L 708.5 242 L 708 241.5 L 708.5 135 Z " /><path fill="rgb(255,255,255)" stroke="rgb(255,255,255)" stroke-width="1" opacity="1" d="M 1212.5 135 L 1248 169.5 L 1213.5 206 L 1177 170.5 Q 1176.25 168.25 1178.5 169 L 1212.5 135 Z " /><path fill="rgb(255,255,255)" stroke="rgb(255,255,255)" stroke-width="1" opacity="1" d="M 1324.5 135 L 1361 169.5 L 1325.5 206 L 1290 169.5 L 1324.5 135 Z " /><path fill="rgb(255,255,255)" stroke="rgb(255,255,255)" stroke-width="1" opacity="1" d="M 817.5 136 L 818 169.5 L 783.5 203 L 783 170.5 L 817.5 136 Z " /><path fill="rgb(255,255,255)" stroke="rgb(255,255,255)" stroke-width="1" opacity="1" d="M 820.5 136 L 855 170.5 L 855 202.5 L 854.5 203 L 840.5 189 L 820 169.5 L 820.5 136 Z " /><path fill="rgb(255,255,255)" stroke="rgb(255,255,255)" stroke-width="1" opacity="1" d="M 885.5 170 L 992.5 170 L 1000 177.5 L 1027 205.5 L 919 206 L 919 204.5 L 885 170.5 L 885.5 170 Z " /><path fill="rgb(255,255,255)" stroke="rgb(255,255,255)" stroke-width="1" opacity="1" d="M 210.5 171 L 318 171.5 L 283.5 206 L 176.5 206 L 176 205.5 L 210.5 171 Z " /><path fill="rgb(255,255,255)" stroke="rgb(255,255,255)" stroke-width="1" opacity="1" d="M 513.5 171 L 580.5 171 L 615 205.5 L 547.5 206 L 513 171.5 L 513.5 171 Z " /><path fill="rgb(255,255,255)" stroke="rgb(255,255,255)" stroke-width="1" opacity="1" d="M 746 171 L 780 171 L 780 205 L 746 205 L 746 171 Z " /><path fill="rgb(255,255,255)" stroke="rgb(255,255,255)" stroke-width="1" opacity="1" d="M 348.5 172 L 383 206.5 L 383 315.5 L 382.5 316 L 348 281.5 L 348.5 172 Z " /><path fill="rgb(255,255,255)" stroke="rgb(255,255,255)" stroke-width="1" opacity="1" d="M 818.5 172 L 854 206.5 L 818.5 242 L 783 206.5 L 818.5 172 Z " /><path fill="rgb(255,255,255)" stroke="rgb(255,255,255)" stroke-width="1" opacity="1" d="M 420.5 173 L 421 204.5 L 422 206.5 L 421 207.5 L 421 282.5 L 415.5 288 L 386.5 316 L 386 206.5 L 420.5 173 Z " /><path fill="rgb(255,255,255)" stroke="rgb(255,255,255)" stroke-width="1" opacity="1" d="M 511.5 173 L 546 207.5 L 546 315.5 L 545.5 316 L 512.5 283 L 511 282.5 L 511.5 173 Z " /><path fill="rgb(255,255,255)" stroke="rgb(255,255,255)" stroke-width="1" opacity="1" d="M 883.5 173 L 918 207.5 L 918 316.5 L 883.5 351 L 883 350.5 L 883.5 173 Z " /><path fill="rgb(255,255,255)" stroke="rgb(255,255,255)" stroke-width="1" opacity="1" d="M 1065.5 173 L 1066 276.5 L 1065.5 277 L 1045 256.5 L 1033.5 244 L 1031 242.5 L 1031 207.5 L 1065.5 173 Z " /><path fill="rgb(255,255,255)" stroke="rgb(255,255,255)" stroke-width="1" opacity="1" d="M 1176.5 173 L 1212 208.5 L 1212 244.5 L 1176.5 280 L 1176 279.5 L 1176.5 173 Z " /><path fill="rgb(255,255,255)" stroke="rgb(255,255,255)" stroke-width="1" opacity="1" d="M 319.5 174 L 320 281 L 318 281 Q 319.13 283.67 316.5 283 L 285.5 314 L 285 313.5 L 285 207.5 L 310.5 182 L 319.5 174 Z " /><path fill="rgb(255,255,255)" stroke="rgb(255,255,255)" stroke-width="1" opacity="1" d="M 1248.5 174 L 1249 244 L 1214 244 L 1214 208.5 L 1248.5 174 Z " /><path fill="rgb(255,255,255)" stroke="rgb(255,255,255)" stroke-width="1" opacity="1" d="M 1289.5 174 L 1321.5 206 L 1323 206 L 1324 208.5 L 1324 390.5 L 1323.5 391 L 1315.5 383 L 1289 357.5 L 1289.5 174 Z " /><path fill="rgb(255,255,255)" stroke="rgb(255,255,255)" stroke-width="1" opacity="1" d="M 1361.5 174 L 1362 356.5 L 1326.5 392 L 1326 391.5 L 1326 208.5 L 1333.5 201 L 1361.5 174 Z " /><path fill="rgb(255,255,255)" stroke="rgb(255,255,255)" stroke-width="1" opacity="1" d="M 746 207 L 780.5 207 L 815 241.5 L 746 242 L 746 207 Z " /><path fill="rgb(255,255,255)" stroke="rgb(255,255,255)" stroke-width="1" opacity="1" d="M 177.5 208 L 246 208 L 246 243 L 211.5 243 L 177 208.5 L 177.5 208 Z " /><path fill="rgb(255,255,255)" stroke="rgb(255,255,255)" stroke-width="1" opacity="1" d="M 249 208 L 282.5 208 L 283 208.5 L 283 313.5 L 282.5 314 L 248 279.5 L 249 278.5 L 249 246.5 L 248 244.5 L 249 241.5 L 249 208 Z " /><path fill="rgb(255,255,255)" stroke="rgb(255,255,255)" stroke-width="1" opacity="1" d="M 548 208 L 584 208 L 584 281.5 L 548.5 317 L 548 316.5 L 548 208 Z " /><path fill="rgb(255,255,255)" stroke="rgb(255,255,255)" stroke-width="1" opacity="1" d="M 920 208 L 954.5 208 L 955 208.5 L 955 350.5 L 954.5 351 L 920 316.5 L 920 208 Z " /><path fill="rgb(255,255,255)" stroke="rgb(255,255,255)" stroke-width="1" opacity="1" d="M 957 208 L 992 208 L 992 242 L 957 242 L 957 208 Z " /><path fill="rgb(255,255,255)" stroke="rgb(255,255,255)" stroke-width="1" opacity="1" d="M 994 208 L 1029 208 L 1029 242 L 994 242 L 994 208 Z " /><path fill="rgb(255,255,255)" stroke="rgb(255,255,255)" stroke-width="1" opacity="1" d="M 172.5 209 L 208 243.5 L 173.5 279 L 138 244.5 L 172.5 209 Z " /><path fill="rgb(255,255,255)" stroke="rgb(255,255,255)" stroke-width="1" opacity="1" d="M 957 244 L 1029.5 244 L 1064 278.5 L 957 279 L 957 244 Z " /><path fill="rgb(255,255,255)" stroke="rgb(255,255,255)" stroke-width="1" opacity="1" d="M 211 245 L 246 245 L 246 279 L 211 279 L 211 245 Z " /><path fill="rgb(255,255,255)" stroke="rgb(255,255,255)" stroke-width="1" opacity="1" d="M 707.5 245 L 815 245.5 L 781.5 279 L 674.5 279 L 674 278.5 L 707.5 245 Z " /><path fill="rgb(255,255,255)" stroke="rgb(255,255,255)" stroke-width="1" opacity="1" d="M 818.5 245 L 854 280.5 L 818.5 316 L 783 280.5 L 818.5 245 Z " /><path fill="rgb(255,255,255)" stroke="rgb(255,255,255)" stroke-width="1" opacity="1" d="M 1213.5 246 L 1287 246 L 1287 282 L 1179 281.5 L 1213.5 246 Z " /><path fill="rgb(255,255,255)" stroke="rgb(255,255,255)" stroke-width="1" opacity="1" d="M 137.5 247 L 172 281.5 L 172 313.5 L 171.5 314 L 137 279.5 L 137.5 247 Z " /><path fill="rgb(255,255,255)" stroke="rgb(255,255,255)" stroke-width="1" opacity="1" d="M 208.5 247 L 209 279.5 L 174.5 314 L 174 313.5 L 174 281.5 L 208.5 247 Z " /><path fill="rgb(255,255,255)" stroke="rgb(255,255,255)" stroke-width="1" opacity="1" d="M 211.5 281 L 246.5 281 L 268 302.5 L 279.5 315 Q 282.13 314.33 281 317 L 176 316.5 L 211.5 281 Z " /><path fill="rgb(255,255,255)" stroke="rgb(255,255,255)" stroke-width="1" opacity="1" d="M 957 281 L 1064 281.5 L 1029.5 316 L 957 316 L 957 281 Z " /><path fill="rgb(255,255,255)" stroke="rgb(255,255,255)" stroke-width="1" opacity="1" d="M 674.5 282 L 781.5 282 L 816 316.5 L 708.5 317 L 674 282.5 L 674.5 282 Z " /><path fill="rgb(255,255,255)" stroke="rgb(255,255,255)" stroke-width="1" opacity="1" d="M 1179.5 284 L 1286.5 284 L 1287 284.5 L 1287 319 L 1213.5 319 L 1179 284.5 L 1179.5 284 Z " /><path fill="rgb(255,255,255)" stroke="rgb(255,255,255)" stroke-width="1" opacity="1" d="M 918.5 319 L 955 354.5 L 918.5 389 L 884 354.5 L 905 333.5 L 918.5 319 Z " /><path fill="rgb(255,255,255)" stroke="rgb(255,255,255)" stroke-width="1" opacity="1" d="M 1216.5 321 L 1287 321 L 1287 357 L 1251.5 357 L 1216 321.5 L 1216.5 321 Z " /><path fill="rgb(255,255,255)" stroke="rgb(255,255,255)" stroke-width="1" opacity="1" d="M 1212.5 323 L 1248 357.5 L 1213.5 393 L 1178.5 359 L 1177 359 L 1177 357.5 L 1205.5 329 L 1212.5 323 Z " /><path fill="rgb(255,255,255)" stroke="rgb(255,255,255)" stroke-width="1" opacity="1" d="M 1250.5 359 L 1287.5 359 L 1309 380.5 L 1319.5 392 L 1322 393.5 L 1216.5 394 L 1216 393.5 L 1250.5 359 Z " /><path fill="rgb(33,33,33)" stroke="rgb(33,33,33)" stroke-width="1" opacity="1" d="M 1130.5 55 L 1172 96.5 L 1172.5 169 L 1213.5 129 L 1254 169.5 L 1254 242 L 1285 242 L 1285 168.5 L 1325.5 129 L 1366 169.5 L 1366 359.5 L 1326.5 399 L 1211.5 399 L 1171 357.5 L 1208 320.5 L 1171.5 284 L 1134.5 321 L 1126.5 321 L 1090 283.5 L 1090 95.5 L 1130.5 55 Z M 1130 61 L 1094 97 L 1130 133 Q 1150 117 1167 98 L 1130 61 Z M 1094 99 L 1093 282 L 1130 318 L 1130 318 L 1130 136 L 1094 99 Z M 1168 99 L 1131 136 L 1131 318 L 1132 318 L 1168 282 L 1168 99 Z M 1213 134 L 1176 171 L 1213 207 L 1249 170 L 1213 134 Z M 1325 134 L 1295 165 L 1289 171 L 1326 207 L 1362 170 L 1325 134 Z M 1177 172 L 1177 280 L 1212 246 L 1212 208 L 1177 172 Z M 1289 172 L 1288 357 L 1325 393 L 1325 393 L 1325 209 L 1289 172 Z M 1249 173 L 1214 208 L 1214 245 L 1249 245 L 1249 173 Z M 1362 173 L 1326 209 L 1326 393 L 1327 393 L 1362 358 L 1362 173 Z M 1213 246 L 1178 282 L 1287 282 L 1287 246 L 1213 246 Z M 1179 284 L 1178 285 L 1214 320 L 1287 320 L 1287 285 L 1287 284 L 1179 284 Z M 1216 321 L 1215 322 L 1251 357 L 1287 357 L 1287 321 L 1216 321 Z M 1213 322 L 1195 339 L 1176 358 L 1213 394 L 1237 371 L 1249 358 L 1213 322 Z M 1250 359 L 1244 366 L 1215 395 L 1216 395 L 1323 395 L 1298 369 L 1289 359 L 1250 359 Z " /><path fill="rgb(33,33,33)" stroke="rgb(33,33,33)" stroke-width="1" opacity="1" d="M 383.5 127 L 385.5 127 L 426 167.5 L 426 283.5 L 388.5 321 L 381.5 321 L 344 283.5 L 344 167.5 L 383.5 127 Z M 384 133 L 348 169 L 385 205 L 401 190 L 421 169 L 386 133 L 384 133 Z M 349 171 L 348 283 L 384 318 L 384 318 L 384 207 L 349 171 Z M 422 171 L 385 208 L 385 318 L 386 318 L 422 282 L 422 171 Z " /><path fill="rgb(33,33,33)" stroke="rgb(33,33,33)" stroke-width="1" opacity="1" d="M 172.5 129 L 285.5 129 L 325 168.5 L 325 281.5 L 285.5 321 L 171.5 321 L 132 282.5 L 132 242.5 L 162.5 212 L 168 207.5 L 131 169.5 L 172.5 129 Z M 176 133 L 175 134 L 211 169 L 319 169 L 290 139 L 285 133 L 176 133 Z M 173 134 L 137 170 L 173 205 L 209 170 L 173 134 Z M 211 170 L 175 206 L 285 206 L 319 171 L 211 170 Z M 321 172 L 302 190 L 285 207 L 285 315 L 286 315 L 321 280 L 321 172 Z M 176 207 L 175 208 L 211 243 L 247 243 L 247 209 L 246 207 L 176 207 Z M 248 207 L 248 280 L 261 294 L 283 315 L 284 315 L 284 207 L 248 207 Z M 173 208 L 137 245 L 173 279 L 178 276 L 209 244 L 173 208 Z M 211 245 L 211 280 L 246 280 L 247 279 L 247 245 L 211 245 Z M 138 246 L 137 281 L 172 315 L 172 315 L 172 281 L 138 246 Z M 209 246 L 174 281 L 174 315 L 175 315 L 209 281 L 209 246 Z M 211 281 L 175 317 L 176 317 L 282 317 L 254 288 L 248 281 L 211 281 Z " /><path fill="rgb(33,33,33)" stroke="rgb(33,33,33)" stroke-width="1" opacity="1" d="M 545.5 129 L 619.5 129 L 660 169.5 L 619.5 211 L 588 211 L 588 284.5 L 550.5 321 L 543.5 321 L 506 283.5 L 506 169.5 L 545.5 129 Z M 548 133 L 512 169 L 513 169 L 581 169 L 616 134 L 548 133 Z M 618 134 L 582 170 L 619 206 L 655 170 L 620 134 L 618 134 Z M 513 170 L 512 171 L 548 206 L 616 206 L 581 170 L 513 170 Z M 510 172 L 510 282 L 546 317 L 546 317 L 546 208 L 539 200 L 512 172 L 510 172 Z M 548 208 L 548 318 L 549 318 L 584 283 L 584 208 L 548 208 Z " /><path fill="rgb(33,33,33)" stroke="rgb(33,33,33)" stroke-width="1" opacity="1" d="M 706.5 129 L 819.5 129 L 860 168.5 L 860 206.5 L 844.5 223 L 824 242.5 L 860 279.5 L 860 281.5 L 819.5 321 L 706.5 321 L 667 281.5 L 667 167.5 L 706.5 129 Z M 711 133 L 710 134 L 713 138 L 745 169 L 782 169 L 817 134 L 711 133 Z M 707 134 L 671 171 L 672 278 L 706 244 L 707 244 L 707 134 Z M 709 134 L 708 243 L 709 243 L 744 243 L 744 171 L 709 134 Z M 818 135 L 782 171 L 782 204 L 784 204 L 818 170 L 818 135 Z M 821 135 L 820 171 L 833 182 L 855 204 L 855 204 L 855 170 L 821 135 Z M 745 170 L 745 205 L 781 205 L 781 170 L 745 170 Z M 819 171 L 805 184 L 783 207 L 820 242 L 854 208 L 854 206 L 819 171 Z M 745 207 L 745 243 L 817 243 L 782 207 L 745 207 Z M 708 244 L 673 279 L 673 280 L 781 280 L 817 245 L 708 244 Z M 818 245 L 783 280 L 783 282 L 818 316 L 820 316 L 855 281 L 820 245 L 818 245 Z M 673 281 L 673 283 L 708 317 L 817 317 L 781 281 L 673 281 Z " /><path fill="rgb(33,33,33)" stroke="rgb(33,33,33)" stroke-width="1" opacity="1" d="M 917.5 129 L 1031.5 129 L 1070 167.5 L 1070 282.5 L 1031.5 321 L 959 321 L 959 356.5 L 918.5 396 L 879 356.5 L 879 167.5 L 917.5 129 Z M 920 133 L 894 158 L 884 168 L 885 168 L 994 168 L 1028 134 L 920 133 Z M 1031 133 L 994 170 L 1030 205 L 1066 170 L 1031 133 Z M 885 170 L 884 171 L 920 206 L 1028 206 L 993 170 L 885 170 Z M 883 171 L 882 352 L 884 352 L 918 318 L 918 207 L 883 171 Z M 1067 171 L 1031 208 L 1031 243 L 1058 271 L 1066 278 L 1067 278 L 1067 171 Z M 920 207 L 920 318 L 955 352 L 955 352 L 955 208 L 955 207 L 920 207 Z M 957 207 L 957 242 L 992 242 L 992 207 L 957 207 Z M 994 207 L 994 242 L 1029 242 L 1029 207 L 994 207 Z M 957 244 L 957 280 L 1065 280 L 1064 278 L 1031 244 L 957 244 Z M 957 281 L 957 316 L 1031 316 L 1065 282 L 957 281 Z M 918 319 L 912 326 L 883 355 L 919 390 L 955 355 L 920 319 L 918 319 Z " /></svg>